<svg id="Layer_1" data-name="Layer 1" xmlns="http://www.w3.org/2000/svg" viewBox="0 0 30.7082 39.2421"><defs><style>.cls-1{fill:#d71001;}</style></defs><title>shield-ico</title><path class="cls-1" d="M30.3252,5.0457a.7844.7844,0,0,0-.7842-.7591H22.7246L15.9492.1228a.7846.7846,0,0,0-.8215,0L8.3523,4.2866H1.5351a.785.785,0,0,0-.7845.7591l-.559,17.155a13.2864,13.2864,0,0,0,6.46,12.0083l8.4925,4.9336a.7853.7853,0,0,0,.7887,0l8.4926-4.9344A13.2807,13.2807,0,0,0,30.8847,22.2ZM23.6367,32.8509l-8.0982,4.7052L7.44,32.8516a11.7178,11.7178,0,0,1-5.68-10.6L2.2946,5.8562h6.28A.7844.7844,0,0,0,8.985,5.74l6.5535-4.0273L22.0919,5.74a.7847.7847,0,0,0,.4109.1161h6.2787l.5346,16.3955A11.7143,11.7143,0,0,1,23.6367,32.8509Z" transform="translate(-0.1841 -0.0067)"/><path class="cls-1" d="M21.3509,17.9764h-1.46V14.8593a4.3525,4.3525,0,1,0-8.7049,0v3.1171h-1.46a.7849.7849,0,0,0-.7848.7849V25.122a.7849.7849,0,0,0,.4726.72l5.8448,2.5365a.7854.7854,0,0,0,.6273-.0011l5.78-2.5335a.7852.7852,0,0,0,.47-.7189V18.7613A.7848.7848,0,0,0,21.3509,17.9764Zm-8.5954-3.1171a2.7828,2.7828,0,1,1,5.5656,0v3.1171H12.7555Zm7.81,9.753-4.9968,2.19L10.5105,24.607V19.5461H20.5659Z" transform="translate(-0.1841 -0.0067)"/><path class="cls-1" d="M15.5385,23.8992a.7849.7849,0,0,0,.7848-.7849v-.5775a.7849.7849,0,0,0-1.57,0v.5775A.785.785,0,0,0,15.5385,23.8992Z" transform="translate(-0.1841 -0.0067)"/></svg>