<svg id="Layer_1" data-name="Layer 1" xmlns="http://www.w3.org/2000/svg" viewBox="0 0 171 171"><defs><style>.cls-1{fill:#7a4fd0;}</style></defs><title>Untitled-1</title><rect class="cls-1" x="84.5" width="2" height="7"/><rect class="cls-1" x="176.2915" y="94.1124" width="2" height="7" transform="translate(-82.1484 -103.1449) rotate(3)"/><rect class="cls-1" x="180.5713" y="94.4492" width="2" height="7" transform="matrix(0.9945, 0.1045, -0.1045, 0.9945, -76.2669, -112.4428)"/><rect class="cls-1" x="184.8276" y="95.0096" width="2" height="7" transform="translate(-69.8019 -121.857) rotate(9)"/><rect class="cls-1" x="189.0488" y="95.7919" width="2" height="7" transform="translate(-62.703 -131.3436) rotate(12)"/><rect class="cls-1" x="193.2232" y="96.7941" width="2" height="7" transform="translate(-54.924 -140.8512) rotate(15)"/><rect class="cls-1" x="197.3394" y="98.0134" width="2" height="7" transform="translate(-46.4232 -150.3218) rotate(18)"/><rect class="cls-1" x="201.3862" y="99.4464" width="2" height="7" transform="translate(-37.1649 -159.6911) rotate(21)"/><rect class="cls-1" x="205.3524" y="101.0893" width="2" height="7" transform="translate(-27.1196 -168.8889) rotate(24)"/><rect class="cls-1" x="209.2272" y="102.9375" width="2" height="7" transform="translate(-16.265 -177.8402) rotate(27)"/><rect class="cls-1" x="213" y="104.9859" width="2" height="7" transform="translate(-4.5865 -186.4656) rotate(30)"/><rect class="cls-1" x="216.6604" y="107.229" width="2" height="7" transform="translate(7.9224 -194.6825) rotate(33)"/><rect class="cls-1" x="220.1984" y="109.6606" width="2" height="7" transform="translate(21.2593 -202.4054) rotate(36)"/><rect class="cls-1" x="223.6043" y="112.274" width="2" height="7" transform="translate(35.4129 -209.5473) rotate(39)"/><rect class="cls-1" x="226.8687" y="115.0621" width="2" height="7" transform="translate(50.3628 -216.0206) rotate(42)"/><rect class="cls-1" x="229.9828" y="118.0172" width="2" height="7" transform="translate(66.079 -221.7379) rotate(45)"/><rect class="cls-1" x="232.9379" y="121.1313" width="2" height="7" transform="translate(82.522 -226.613) rotate(48)"/><rect class="cls-1" x="235.726" y="124.3957" width="2" height="7" transform="translate(99.6431 -230.5623) rotate(51)"/><rect class="cls-1" x="238.3394" y="127.8016" width="2" height="7" transform="translate(117.3845 -233.5052) rotate(54)"/><rect class="cls-1" x="240.771" y="131.3396" width="2" height="7" transform="translate(135.6791 -235.3655) rotate(57)"/><rect class="cls-1" x="243.0141" y="135" width="2" height="7" transform="translate(154.4516 -236.0724) rotate(60)"/><rect class="cls-1" x="245.0625" y="138.7728" width="2" height="7" transform="translate(173.6185 -235.561) rotate(63)"/><rect class="cls-1" x="246.9107" y="142.6476" width="2" height="7" transform="translate(193.0888 -233.7737) rotate(66)"/><rect class="cls-1" x="248.5536" y="146.6138" width="2" height="7" transform="translate(212.7649 -230.6605) rotate(69)"/><rect class="cls-1" x="249.9866" y="150.6606" width="2" height="7" transform="translate(232.5429 -226.1801) rotate(72)"/><rect class="cls-1" x="251.2059" y="154.7768" width="2" height="7" transform="translate(252.3139 -220.3004) rotate(75)"/><rect class="cls-1" x="252.2081" y="158.9512" width="2" height="7" transform="translate(271.9645 -212.9992) rotate(78)"/><rect class="cls-1" x="252.9904" y="163.1724" width="2" height="7" transform="translate(291.3779 -204.2643) rotate(81)"/><rect class="cls-1" x="253.5508" y="167.4287" width="2" height="7" transform="translate(310.4353 -194.0946) rotate(84)"/><rect class="cls-1" x="253.8876" y="171.7085" width="2" height="7" transform="translate(329.0162 -182.4996) rotate(87)"/><rect class="cls-1" x="254" y="176" width="2" height="7" transform="translate(347 -169.5) rotate(90)"/><rect class="cls-1" x="253.8876" y="180.2915" width="2" height="7" transform="translate(364.2671 -155.1279) rotate(93)"/><rect class="cls-1" x="253.5508" y="184.5713" width="2" height="7" transform="translate(380.6997 -139.4262) rotate(96)"/><rect class="cls-1" x="252.9904" y="188.8276" width="2" height="7" transform="matrix(-0.1564, 0.9877, -0.9877, -0.1564, 396.1831, -122.4491)"/><rect class="cls-1" x="252.2081" y="193.0488" width="2" height="7" transform="translate(410.6067 -104.2614) rotate(102)"/><rect class="cls-1" x="251.2059" y="197.2232" width="2" height="7" transform="matrix(-0.2588, 0.9659, -0.9659, -0.2588, 423.8653, -84.9381)"/><rect class="cls-1" x="249.9866" y="201.3394" width="2" height="7" transform="translate(435.8596 -64.5642) rotate(108)"/><rect class="cls-1" x="248.5536" y="205.3862" width="2" height="7" transform="translate(446.4976 -43.2341) rotate(111)"/><rect class="cls-1" x="246.9107" y="209.3524" width="2" height="7" transform="translate(455.6955 -21.0504) rotate(114)"/><rect class="cls-1" x="245.0625" y="213.2272" width="2" height="7" transform="translate(463.378 1.876) rotate(117)"/><rect class="cls-1" x="243.0141" y="217" width="2" height="7" transform="translate(469.4797 25.4276) rotate(120)"/><rect class="cls-1" x="240.771" y="220.6604" width="2" height="7" transform="translate(473.9456 49.4807) rotate(123)"/><rect class="cls-1" x="238.3394" y="224.1984" width="2" height="7" transform="translate(476.7314 73.9065) rotate(126)"/><rect class="cls-1" x="235.726" y="227.6043" width="2" height="7" transform="translate(477.8042 98.5723) rotate(129)"/><rect class="cls-1" x="232.9379" y="230.8687" width="2" height="7" transform="translate(477.1428 123.3423) rotate(132)"/><rect class="cls-1" x="229.9828" y="233.9828" width="2" height="7" transform="translate(474.7379 148.079) rotate(135)"/><rect class="cls-1" x="226.8687" y="236.9379" width="2" height="7" transform="translate(470.5925 172.6441) rotate(138)"/><rect class="cls-1" x="223.6043" y="239.726" width="2" height="7" transform="translate(464.7216 196.9) rotate(141)"/><rect class="cls-1" x="220.1984" y="242.3394" width="2" height="7" transform="translate(457.1524 220.7105) rotate(144)"/><rect class="cls-1" x="216.6604" y="244.771" width="2" height="7" transform="translate(447.9238 243.9422) rotate(147)"/><rect class="cls-1" x="213" y="247.0141" width="2" height="7" transform="translate(437.0865 266.4656) rotate(150)"/><rect class="cls-1" x="209.2272" y="249.0625" width="2" height="7" transform="translate(424.702 288.1562) rotate(153)"/><rect class="cls-1" x="205.3524" y="250.9107" width="2" height="7" transform="translate(410.8429 308.8954) rotate(156)"/><rect class="cls-1" x="201.3862" y="252.5536" width="2" height="7" transform="translate(395.5913 328.5715) rotate(159)"/><rect class="cls-1" x="197.3394" y="253.9866" width="2" height="7" transform="translate(379.0391 347.0807) rotate(162)"/><rect class="cls-1" x="193.2232" y="255.2059" width="2" height="7" transform="translate(361.2863 364.328) rotate(165)"/><rect class="cls-1" x="189.0488" y="256.2081" width="2" height="7" transform="translate(342.4408 380.2276) rotate(168)"/><rect class="cls-1" x="184.8276" y="256.9904" width="2" height="7" transform="translate(322.6171 394.704) rotate(171)"/><rect class="cls-1" x="180.5713" y="257.5508" width="2" height="7" transform="translate(301.9352 407.6922) rotate(174)"/><rect class="cls-1" x="176.2915" y="257.8876" width="2" height="7" transform="translate(280.5201 419.1383) rotate(177)"/><rect class="cls-1" x="172" y="258" width="2" height="7" transform="translate(258.5 429) rotate(180)"/><rect class="cls-1" x="167.7085" y="257.8876" width="2" height="7" transform="translate(236.0057 437.2465) rotate(-177)"/><rect class="cls-1" x="163.4287" y="257.5508" width="2" height="7" transform="translate(213.1693 443.859) rotate(-174)"/><rect class="cls-1" x="159.1724" y="256.9904" width="2" height="7" transform="translate(190.1231 448.8303) rotate(-171)"/><rect class="cls-1" x="154.9512" y="256.2081" width="2" height="7" transform="translate(166.9982 452.165) rotate(-168)"/><rect class="cls-1" x="150.7768" y="255.2059" width="2" height="7" transform="translate(143.924 453.8794) rotate(-165)"/><rect class="cls-1" x="146.6606" y="253.9866" width="2" height="7" transform="translate(121.0264 454.0006) rotate(-162)"/><rect class="cls-1" x="142.6138" y="252.5536" width="2" height="7" transform="translate(98.4275 452.5668) rotate(-159)"/><rect class="cls-1" x="138.6476" y="250.9107" width="2" height="7" transform="translate(76.2439 449.6263) rotate(-156)"/><rect class="cls-1" x="134.7728" y="249.0625" width="2" height="7" transform="translate(54.5862 445.237) rotate(-153)"/><rect class="cls-1" x="131" y="247.0141" width="2" height="7" transform="translate(33.5583 439.4656) rotate(-150)"/><rect class="cls-1" x="127.3396" y="244.771" width="2" height="7" transform="translate(13.2562 432.3873) rotate(-147)"/><rect class="cls-1" x="123.8016" y="242.3394" width="2" height="7" transform="translate(-6.2325 424.0842) rotate(-144)"/><rect class="cls-1" x="120.3957" y="239.726" width="2" height="7" transform="translate(-24.8291 414.6449) rotate(-141)"/><rect class="cls-1" x="117.1313" y="236.9379" width="2" height="7" transform="translate(-42.4644 404.1633) rotate(-138)"/><rect class="cls-1" x="114.0172" y="233.9828" width="2" height="7" transform="translate(-59.079 392.7379) rotate(-135)"/><rect class="cls-1" x="111.0621" y="230.8687" width="2" height="7" transform="translate(-74.6236 380.4704) rotate(-132)"/><rect class="cls-1" x="108.274" y="227.6043" width="2" height="7" transform="translate(-89.0593 367.4648) rotate(-129)"/><rect class="cls-1" x="105.6606" y="224.1984" width="2" height="7" transform="translate(-102.3577 353.8264) rotate(-126)"/><rect class="cls-1" x="103.229" y="220.6604" width="2" height="7" transform="translate(-114.5005 339.6607) rotate(-123)"/><rect class="cls-1" x="100.9859" y="217" width="2" height="7" transform="matrix(-0.5, -0.866, 0.866, -0.5, -125.4797, 325.0724)"/><rect class="cls-1" x="98.9375" y="213.2272" width="2" height="7" transform="translate(-135.2972 310.1643) rotate(-117)"/><rect class="cls-1" x="97.0893" y="209.3524" width="2" height="7" transform="translate(-143.9646 295.0363) rotate(-114)"/><rect class="cls-1" x="95.4464" y="205.3862" width="2" height="7" transform="translate(-151.5023 279.7848) rotate(-111)"/><rect class="cls-1" x="94.0134" y="201.3394" width="2" height="7" transform="matrix(-0.309, -0.9511, 0.9511, -0.309, -157.9397, 264.5013)"/><rect class="cls-1" x="92.7941" y="197.2232" width="2" height="7" transform="matrix(-0.2588, -0.9659, 0.9659, -0.2588, -163.3139, 249.2723)"/><rect class="cls-1" x="91.7919" y="193.0488" width="2" height="7" transform="translate(-167.6693 234.1777) rotate(-102)"/><rect class="cls-1" x="91.0096" y="188.8276" width="2" height="7" transform="translate(-171.0567 219.2911) rotate(-99)"/><rect class="cls-1" x="90.4492" y="184.5713" width="2" height="7" transform="translate(-173.5328 204.6784) rotate(-96)"/><rect class="cls-1" x="90.1124" y="180.2915" width="2" height="7" transform="translate(-175.1588 190.398) rotate(-93)"/><rect class="cls-1" x="90" y="176" width="2" height="7" transform="translate(-176 176.5) rotate(-90)"/><rect class="cls-1" x="90.1124" y="171.7085" width="2" height="7" transform="translate(-176.1244 163.0263) rotate(-87)"/><rect class="cls-1" x="90.4492" y="167.4287" width="2" height="7" transform="translate(-175.6021 150.01) rotate(-84)"/><rect class="cls-1" x="91.0096" y="163.1724" width="2" height="7" transform="translate(-174.5043 137.4758) rotate(-81)"/><rect class="cls-1" x="91.7919" y="158.9512" width="2" height="7" transform="translate(-172.9019 125.4399) rotate(-78)"/><rect class="cls-1" x="92.7941" y="154.7768" width="2" height="7" transform="translate(-170.8653 113.9099) rotate(-75)"/><rect class="cls-1" x="94.0134" y="150.6606" width="2" height="7" transform="translate(-168.4628 102.8854) rotate(-72)"/><rect class="cls-1" x="95.4464" y="146.6138" width="2" height="7" transform="translate(-165.7602 92.3583) rotate(-69)"/><rect class="cls-1" x="97.0893" y="142.6476" width="2" height="7" transform="translate(-162.8197 82.313) rotate(-66)"/><rect class="cls-1" x="98.9375" y="138.7728" width="2" height="7" transform="translate(-159.6992 72.7272) rotate(-63)"/><rect class="cls-1" x="100.9859" y="135" width="2" height="7" transform="translate(-156.4516 63.5724) rotate(-60)"/><rect class="cls-1" x="103.229" y="131.3396" width="2" height="7" transform="translate(-153.1242 54.8145) rotate(-57)"/><rect class="cls-1" x="105.6606" y="127.8016" width="2" height="7" transform="translate(-149.7582 46.4147) rotate(-54)"/><rect class="cls-1" x="108.274" y="124.3957" width="2" height="7" transform="translate(-146.388 38.3302) rotate(-51)"/><rect class="cls-1" x="111.0621" y="121.1313" width="2" height="7" transform="translate(-143.0412 30.5151) rotate(-48)"/><rect class="cls-1" x="114.0172" y="118.0172" width="2" height="7" transform="translate(-139.7379 22.921) rotate(-45)"/><rect class="cls-1" x="117.1313" y="115.0621" width="2" height="7" transform="translate(-136.4909 15.4986) rotate(-42)"/><rect class="cls-1" x="120.3957" y="112.274" width="2" height="7" transform="translate(-133.3054 8.1975) rotate(-39)"/><rect class="cls-1" x="123.8016" y="109.6606" width="2" height="7" transform="translate(-130.1791 0.9683) rotate(-36)"/><rect class="cls-1" x="127.3396" y="107.229" width="2" height="7" transform="translate(-127.1024 -6.2374) rotate(-33)"/><rect class="cls-1" x="131" y="104.9859" width="2" height="7" transform="translate(-124.0583 -13.4656) rotate(-30)"/><rect class="cls-1" x="134.7728" y="102.9375" width="2" height="7" transform="translate(-121.0233 -20.7595) rotate(-27)"/><rect class="cls-1" x="138.6476" y="101.0893" width="2" height="7" transform="translate(-117.9671 -28.158) rotate(-24)"/><rect class="cls-1" x="142.6138" y="99.4464" width="2" height="7" transform="translate(-114.8539 -35.6958) rotate(-21)"/><rect class="cls-1" x="146.6606" y="98.0134" width="2" height="7" transform="translate(-111.6423 -43.4019) rotate(-18)"/><rect class="cls-1" x="150.7768" y="96.7941" width="2" height="7" transform="matrix(0.9659, -0.2588, 0.2588, 0.9659, -108.2863, -51.2998)"/><rect class="cls-1" x="154.9512" y="95.7919" width="2" height="7" transform="translate(-104.736 -59.4061) rotate(-12)"/><rect class="cls-1" x="159.1724" y="95.0096" width="2" height="7" transform="translate(-100.9383 -67.7307) rotate(-9)"/><rect class="cls-1" x="163.4287" y="94.4492" width="2" height="7" transform="translate(-96.8377 -76.2759) rotate(-6)"/><rect class="cls-1" x="167.7085" y="94.1124" width="2" height="7" transform="translate(-92.3774 -85.0367) rotate(-3)"/></svg>