<svg id="Layer_1" data-name="Layer 1" xmlns="http://www.w3.org/2000/svg" viewBox="0 0 167 45"><defs><style>.cls-1{fill:#f36d21;}.cls-2{fill:#231f20;}</style></defs><path class="cls-1" d="M2.78,4.33S8.25,0,23.65,0,44.52,4.33,44.52,4.33s-13.31,8.61-20.87,8.61S2.78,4.33,2.78,4.33Z"/><path class="cls-1" d="M0,8.5S2,23.11,7.73,32A41.72,41.72,0,0,0,21,45s1.3-15.29-2.87-22.5S0,8.5,0,8.5Z"/><path class="cls-1" d="M46.34,8.5s-14.09,7.91-17.48,14S26.25,45,26.25,45s10.18-7.8,15.13-16.93S46.34,8.5,46.34,8.5Z"/><polygon class="cls-2" points="54.38 11.33 60.95 11.33 66.08 21.11 70.86 11.33 76.86 11.33 68.78 26.75 68.78 34.07 63.3 34.07 63.3 26.75 54.38 11.33"/><path class="cls-2" d="M158.65,11.33H152l-7.79,22.74h5.87l1.19-3.39h7.61l1.1,3.39h7ZM153,25.72l2.59-8.35L158,25.72Z"/><path class="cls-2" d="M89,11.33H82.42L74.63,34.07h5.89l1.34-3.39H89.3l1.1,3.39h7ZM83.42,25.72,86,17.37l2.42,8.35Z"/><path class="cls-2" d="M113.21,10.59h-13V34.07H113s7.3-.65,7.3-11.37S113.21,10.59,113.21,10.59Zm-2.21,19h-4.83V15.46h4.74s3.78.17,3.78,7.09S111,29.63,111,29.63Z"/><polygon class="cls-2" points="124.52 10.59 124.52 34.07 140.69 34.07 140.69 29.62 130.95 29.62 130.95 25.45 139.47 25.45 139.47 20.33 130.78 20.33 130.78 15.46 140.69 15.46 140.69 10.59 124.52 10.59"/></svg>