<?xml version="1.0" encoding="utf-8"?>
<svg version="1.1" id="Layer_1" xmlns="http://www.w3.org/2000/svg" xmlns:xlink="http://www.w3.org/1999/xlink" x="0px" y="0px"
	 viewBox="0 0 52.1 35.3" style="enable-background:new 0 0 52.1 35.3;" xml:space="preserve">
<style type="text/css">
	.st0{fill:#D71001;}
</style>
<g>
	<path class="st0" d="M2,27.8c-2-0.4-1.9-0.4-2-2.4c-0.1-4.9,1.8-8.6,6.2-10.9c1.2-0.6,2.6-0.9,4-1.3c0-0.1-0.1-0.2-0.1-0.4
		c-0.7-2.2,0.7-4.3,3.1-4.3c3.9,0,7.8,0,11.8,0c1.7,0,3,1.1,3.3,2.5c0.3,1.6-0.4,2.9-1.9,3.7c-0.3,0.2-0.6,0.6-0.8,1
		c-0.5,1.2-0.9,2.5-1.4,3.7c-1.1,2.5-0.3,4.1,2.4,4.7c4.8,1.1,9.5-2.5,10.4-7.6c0.5-2.9-0.2-5.8-0.5-8.7c-0.1-1.1-0.3-2.3-0.5-3.5
		c-1.6,0-3.1,0-4.6,0c-0.6,0-1.2,0-1.2-0.8c0-0.7,0.6-0.8,1.1-0.8c1.4,0,2.9,0,4.4,0c0-0.5-0.1-0.9-0.1-1.3c-0.2-1.2,0-1.3,1.2-1.3
		c0.8,0,1.7,0.1,2.5,0c1-0.1,1.5,0.3,1.7,1.3c0,0.3,0.2,0.6,0.3,1c1.1-0.5,2.2-0.9,3.2-1.4c1-0.4,1.5-0.1,1.5,1c0,2.2,0,4.3,0,6.5
		c0,1.2-0.5,1.5-1.6,1c-0.4-0.2-0.8-0.3-1.4-0.6c0.3,1,0.5,1.8,0.7,2.7c0.7,2.5,1.3,5.1,2,7.6c0.1,0.4,0.5,0.8,0.9,0.9
		c3.6,1.1,5.8,4.2,5.7,8c-0.1,3.5-2.7,6.5-6.1,7.2c-3.6,0.7-7.1-1-8.6-4.4C37,30.1,36.7,29.9,36,30c-6.2,0-12.5,0-18.7,0
		c-0.6,0-1,0-1.3,0.7c-1.2,3.3-4.4,5.2-7.9,4.6c-3.3-0.5-5.8-3.3-6.1-6.7C2.1,28.4,2,28.1,2,27.8z M37.1,1.6
		c0.4,3.4,0.9,6.8,1.3,10.1c0.4,2.9,0.2,5.8-1.2,8.5c-2.2,4.3-7.3,6.6-11.7,5.3c-3.1-0.9-4.3-3.5-3.1-6.5c0.2-0.4,0.4-0.7,0.5-1.1
		c0.3-0.9,0.6-1.9,1-2.9c-0.3,0-0.5-0.1-0.6-0.1c-4.2,0-8.5-0.1-12.7,0c-3.6,0.1-6.2,1.9-7.9,5c-1,1.9-1.2,3.9-1,6
		c4.1,0,8.1,0,12.1,0c2.2,0,2.2,0,2.8,2.1c0.5,0,0.9,0,1.4,0c6.3,0,12.7-0.1,19,0c1.8,0,3.2-0.6,4-2c1-1.7,1.8-3.5,2.6-5.3
		c0.2-0.5,0.2-1.1,0.1-1.6C42.5,13.9,41,8.5,39.6,3.1C39.1,1.3,39.1,1.3,37.1,1.6z M38.8,30c1,2.5,3.9,4.1,6.7,3.6
		c3-0.6,5.1-3.2,5-6.2c-0.1-2.9-2.2-5.3-5.1-5.7C44.1,25,42.8,28.6,38.8,30z M3.7,27.7c-0.1,2.2,0.7,3.9,2.5,5.1
		c2,1.3,4.1,1.3,6.1,0c1.8-1.2,2.6-2.9,2.5-5.1C11.1,27.7,7.4,27.7,3.7,27.7z M18.9,13.3c2,0,3.9,0,5.9,0c1.1,0,1.8-0.7,1.7-1.7
		c0-0.9-0.7-1.5-1.7-1.5c-3.8,0-7.6,0-11.4,0c-1.1,0-1.8,0.6-1.8,1.6c0,1,0.7,1.6,1.9,1.7C15.2,13.4,17.1,13.4,18.9,13.3z M41.5,3.8
		c0.5,3,0.8,3.4,2.5,3.5c0-1.5,0-3,0-4.6C43.1,3.1,42.2,3.5,41.5,3.8z"/>
</g>
</svg>
