<?xml version="1.0" encoding="utf-8"?>
<svg version="1.1" id="Layer_1" xmlns="http://www.w3.org/2000/svg" xmlns:xlink="http://www.w3.org/1999/xlink" x="0px" y="0px"
	 viewBox="0 0 27.5 36.1" style="enable-background:new 0 0 27.5 36.1;" xml:space="preserve">
<style type="text/css">
	.st0{fill:#D71001;}
</style>
<g>
	<path class="st0" d="M14.1,22.8c-1.8,0-3.3,1.5-3.3,3.3c0,0.9,0.4,1.8,1.1,2.4v1c0,1.2,1,2.2,2.2,2.2c1.2,0,2.2-1,2.2-2.2v-1
		c0.7-0.6,1.1-1.5,1.1-2.4C17.3,24.2,15.9,22.8,14.1,22.8z M15.1,27.5c-0.2,0.1-0.3,0.4-0.3,0.6v1.4c0,0.4-0.3,0.7-0.7,0.7
		c-0.4,0-0.7-0.3-0.7-0.7v-1.4c0-0.3-0.1-0.5-0.3-0.6c-0.5-0.3-0.7-0.8-0.7-1.4c0-1,0.8-1.7,1.7-1.7c0.9,0,1.7,0.8,1.7,1.7
		C15.8,26.6,15.5,27.1,15.1,27.5z"/>
	<path class="st0" d="M19.8,16.8c0.4,0,0.8-0.4,0.8-0.8v-5.9c0-3.6-2.9-6.5-6.5-6.5c-3.6,0-6.5,2.9-6.5,6.5v1.9
		c0,0.4,0.4,0.8,0.8,0.8s0.8-0.4,0.8-0.8v-1.9c0-2.7,2.2-4.9,4.9-4.9c2.7,0,4.9,2.2,4.9,4.9v5.9C19,16.5,19.4,16.8,19.8,16.8z"/>
	<path class="st0" d="M24.4,18.4H24v-8.2C24,4.7,19.7,0.1,14.3,0c-2.7,0-5.2,1-7.1,2.8c-1.9,1.9-3,4.4-3,7.1V13
		c0,1.7,1.4,3.1,3.1,3.1h1.1c0.4,0,0.8-0.4,0.8-0.8c0-0.4-0.4-0.8-0.8-0.8H7.3c-0.9,0-1.6-0.7-1.6-1.6V9.9c0-2.3,0.9-4.4,2.5-6
		c1.6-1.6,3.7-2.4,6-2.4c4.5,0.1,8.2,4,8.2,8.6v8.2H3.1c-1.6,0-2.9,1.3-2.9,2.9v11.9c0,1.6,1.3,2.9,2.9,2.9h21.3
		c1.6,0,2.9-1.3,2.9-2.9V21.3C27.3,19.7,26,18.4,24.4,18.4z M25.8,33.2c0,0.8-0.6,1.4-1.4,1.4H3.1c-0.7,0-1.4-0.6-1.4-1.4V21.3
		c0-0.7,0.6-1.4,1.4-1.4h21.3c0.7,0,1.4,0.6,1.4,1.4V33.2z"/>
	<path class="st0" d="M6,22.1c-0.4,0-0.8,0.4-0.8,0.8v8.7c0,0.4,0.4,0.8,0.8,0.8s0.8-0.4,0.8-0.8v-8.7C6.8,22.5,6.5,22.1,6,22.1z"/>
	<path class="st0" d="M21.5,22.1c-0.4,0-0.8,0.4-0.8,0.8v8.7c0,0.4,0.4,0.8,0.8,0.8c0.4,0,0.8-0.4,0.8-0.8v-8.7
		C22.3,22.5,21.9,22.1,21.5,22.1z"/>
</g>
</svg>
