<?xml version="1.0" encoding="utf-8"?>
<!-- Generator: Adobe Illustrator 22.0.0, SVG Export Plug-In . SVG Version: 6.00 Build 0)  -->
<svg version="1.1" id="Layer_1" xmlns="http://www.w3.org/2000/svg" xmlns:xlink="http://www.w3.org/1999/xlink" x="0px" y="0px"
	 viewBox="0 0 30.7 39.9" style="enable-background:new 0 0 30.7 39.9;" xml:space="preserve">
<style type="text/css">
	.st0{fill:#D71001;}
</style>
<g>
	<path class="st0" d="M30.1,5.4c0-0.4-0.4-0.8-0.8-0.8h-6.8l-6.8-4.2c-0.3-0.2-0.6-0.2-0.8,0L8.2,4.7H1.4C0.9,4.7,0.6,5,0.6,5.4
		L0,22.6c-0.2,5,2.3,9.6,6.5,12l8.5,4.9c0.1,0.1,0.3,0.1,0.4,0.1s0.3,0,0.4-0.1l8.5-4.9c4.1-2.4,6.6-7,6.5-12L30.1,5.4z M23.5,33.2
		l-8.1,4.7l-8.1-4.7C3.6,31.1,1.4,27,1.6,22.6L2.1,6.2h6.3c0.1,0,0.3,0,0.4-0.1l6.6-4l6.6,4c0.1,0.1,0.3,0.1,0.4,0.1h6.3l0.5,16.4
		C29.3,27,27.1,31.1,23.5,33.2z"/>
	<path class="st0" d="M21.2,18.3h-1.5v-3.1c0-2.4-2-4.4-4.4-4.4c-2.4,0-4.4,2-4.4,4.4v3.1H9.5c-0.4,0-0.8,0.4-0.8,0.8v6.4
		c0,0.3,0.2,0.6,0.5,0.7l5.8,2.5c0.1,0,0.2,0.1,0.3,0.1c0.1,0,0.2,0,0.3-0.1l5.8-2.5c0.3-0.1,0.5-0.4,0.5-0.7v-6.4
		C22,18.7,21.6,18.3,21.2,18.3z M12.6,15.2c0-1.5,1.2-2.8,2.8-2.8c1.5,0,2.8,1.2,2.8,2.8v3.1h-5.6V15.2z M20.4,25l-5,2.2L10.3,25
		v-5.1h10.1V25z"/>
	<path class="st0" d="M15.4,24.3c0.4,0,0.8-0.4,0.8-0.8v-0.6c0-0.4-0.4-0.8-0.8-0.8c-0.4,0-0.8,0.4-0.8,0.8v0.6
		C14.6,23.9,14.9,24.3,15.4,24.3z"/>
</g>
</svg>
